<svg width="43" height="53" viewBox="0 0 43 53" fill="none" xmlns="http://www.w3.org/2000/svg">
<path d="M21.2678 26.5C22.7116 26.5 23.9479 25.9855 24.9769 24.9565C26.0042 23.9292 26.5178 22.6938 26.5178 21.25C26.5178 19.8062 26.0042 18.5699 24.9769 17.5409C23.9479 16.5136 22.7116 16 21.2678 16C19.8241 16 18.5886 16.5136 17.5613 17.5409C16.5323 18.5699 16.0178 19.8062 16.0178 21.25C16.0178 22.6938 16.5323 23.9292 17.5613 24.9565C18.5886 25.9855 19.8241 26.5 21.2678 26.5ZM21.2678 52.75C14.2241 46.7562 8.96357 41.1886 5.48632 36.0471C2.00732 30.9074 0.267822 26.15 0.267822 21.775C0.267822 15.2125 2.3792 9.98438 6.60195 6.09062C10.8229 2.19687 15.7116 0.25 21.2678 0.25C26.8241 0.25 31.7127 2.19687 35.9337 6.09062C40.1564 9.98438 42.2678 15.2125 42.2678 21.775C42.2678 26.15 40.5292 30.9074 37.0519 36.0471C33.5729 41.1886 28.3116 46.7562 21.2678 52.75Z" fill="black"/>
</svg>
