<svg width="189" height="74" viewBox="0 0 189 74" fill="none" xmlns="http://www.w3.org/2000/svg">
<path d="M32.016 33.696H25.2L20.592 18.912H20.16L15.504 33.696H8.64L0 2.784H6.384L6.864 6.576L12.336 26.976H12.768L18 10.32L15.792 2.784H22.416L23.136 7.248L28.704 26.976H29.136L35.376 7.008L36.144 2.784H42.192L32.016 33.696Z" fill="white"/>
<path d="M60.4054 23.328L47.4454 23.424C47.7334 27.424 49.7654 29.424 53.5414 29.424C55.5254 29.424 57.7334 28.864 60.1654 27.744L60.6934 28.08L59.7334 32.832C57.3014 33.728 55.0134 34.176 52.8694 34.176C49.3494 34.176 46.5814 33.152 44.5654 31.104C42.5814 29.056 41.5894 26.224 41.5894 22.608C41.5894 19.024 42.5654 16.192 44.5174 14.112C46.4694 12 49.1094 10.944 52.4374 10.944C55.2854 10.944 57.4774 11.728 59.0134 13.296C60.5814 14.832 61.3654 16.992 61.3654 19.776C61.3654 20.512 61.2854 21.44 61.1254 22.56L60.4054 23.328ZM55.7974 19.056C55.7974 17.776 55.5094 16.816 54.9334 16.176C54.3574 15.504 53.5094 15.168 52.3894 15.168C51.1414 15.168 50.1014 15.584 49.2694 16.416C48.4374 17.216 47.8774 18.384 47.5894 19.92L55.7014 19.728L55.7974 19.056Z" fill="white"/>
<path d="M74.55 10.944C77.014 10.944 78.934 11.504 80.31 12.624C81.718 13.712 82.422 15.248 82.422 17.232C82.422 17.808 82.326 19.632 82.134 22.704C82.102 23.6 82.054 24.528 81.99 25.488C81.926 26.416 81.894 27.216 81.894 27.888C81.894 28.432 81.974 28.816 82.134 29.04C82.294 29.232 82.582 29.328 82.998 29.328C83.318 29.328 83.734 29.264 84.246 29.136L84.726 29.52L84.15 32.88C83.126 33.552 81.958 33.952 80.646 34.08C79.686 33.984 78.886 33.648 78.246 33.072C77.606 32.464 77.174 31.632 76.95 30.576H76.614C75.014 32.272 73.366 33.456 71.67 34.128C69.366 34.096 67.558 33.488 66.246 32.304C64.934 31.12 64.278 29.504 64.278 27.456C64.278 25.856 64.678 24.608 65.478 23.712C66.31 22.784 67.558 22.16 69.222 21.84L76.566 20.448V18.48C76.566 16.4 75.542 15.36 73.494 15.36C72.502 15.36 71.446 15.584 70.326 16.032C69.238 16.48 68.006 17.184 66.63 18.144L66.15 17.856L65.43 13.632C66.806 12.768 68.278 12.112 69.846 11.664C71.414 11.184 72.982 10.944 74.55 10.944ZM71.43 24.768C70.918 24.896 70.534 25.12 70.278 25.44C70.054 25.728 69.942 26.176 69.942 26.784C69.942 27.616 70.166 28.272 70.614 28.752C71.062 29.2 71.686 29.424 72.486 29.424C73.734 29.424 75.046 28.688 76.422 27.216L76.518 23.664L71.43 24.768Z" fill="white"/>
<path d="M97.8994 28.992C98.9234 28.992 99.9954 28.72 101.115 28.176L101.643 28.656L101.019 32.448C99.3874 33.28 97.7234 33.792 96.0274 33.984C91.7074 33.536 89.5474 31.424 89.5474 27.648L89.7874 23.664L89.7394 15.408H86.7634L86.5234 15.072L86.8594 11.568H89.6914V7.872L95.4994 6L95.9314 6.384L95.7874 11.568H101.499L101.691 11.904L101.403 15.408H95.6914L95.4034 26.16C95.4034 27.184 95.5954 27.92 95.9794 28.368C96.3634 28.784 97.0034 28.992 97.8994 28.992Z" fill="white"/>
<path d="M119.014 19.776C119.046 18.624 118.806 17.744 118.294 17.136C117.782 16.528 117.03 16.224 116.038 16.224C114.598 16.224 113.062 16.912 111.43 18.288L111.334 23.856L112 42.6049H105.334L105.622 24.432L105.334 0.48L111.718 0L111.478 14.544H111.766C113.526 12.944 115.462 11.792 117.574 11.088C120.006 11.088 121.846 11.648 123.094 12.768C124.374 13.856 124.998 15.44 124.966 17.52L124.822 23.904L125.062 33.696H118.678L119.014 19.776Z" fill="white"/>
<path d="M147.968 23.328L135.008 23.424C135.296 27.424 137.328 29.424 141.104 29.424C143.088 29.424 145.296 28.864 147.728 27.744L148.256 28.08L147.296 32.832C144.864 33.728 142.576 34.176 140.432 34.176C136.912 34.176 134.144 33.152 132.128 31.104C130.144 29.056 129.152 26.224 129.152 22.608C129.152 19.024 130.128 16.192 132.08 14.112C134.032 12 136.672 10.944 140 10.944C142.848 10.944 145.04 11.728 146.576 13.296C148.144 14.832 148.928 16.992 148.928 19.776C148.928 20.512 148.848 21.44 148.688 22.56L147.968 23.328ZM143.36 19.056C143.36 17.776 143.072 16.816 142.496 16.176C141.92 15.504 141.072 15.168 139.952 15.168C138.704 15.168 137.664 15.584 136.832 16.416C136 17.216 135.44 18.384 135.152 19.92L143.264 19.728L143.36 19.056Z" fill="white"/>
<path d="M165.665 11.328C165.952 11.328 166.353 11.36 166.865 11.424V17.328L166.193 17.568C165.648 17.344 165.057 17.232 164.417 17.232C162.561 17.232 160.88 18.432 159.376 20.832V23.856L159.712 33.696H153.328L153.712 24.48L153.424 11.808L159.473 11.28L159.424 15.648H159.809C161.376 12.768 163.329 11.328 165.665 11.328Z" fill="white"/>
<path d="M131.014 63.6769L131.254 73.2289H124.246L111.622 52.3009H111.238L111.19 62.5729L111.382 73.2289H105.478L105.334 42.6049H112.294L125.11 67.2449L125.542 63.2449L125.398 42.6049L131.398 42.2209L131.014 63.6769Z" fill="white"/>
<path d="M145.808 49.9969C149.072 49.9969 151.568 50.9569 153.296 52.8769C155.024 54.7969 155.888 57.5649 155.888 61.1809C155.888 65.0849 154.96 68.0769 153.104 70.1569C151.248 72.2049 148.576 73.2289 145.088 73.2289C141.824 73.2289 139.328 72.2689 137.6 70.3489C135.872 68.4289 135.008 65.6609 135.008 62.0449C135.008 58.1409 135.936 55.1649 137.792 53.1169C139.648 51.0369 142.32 49.9969 145.808 49.9969ZM145.376 54.3169C143.84 54.3169 142.72 54.8289 142.016 55.8529C141.344 56.8769 141.008 58.5249 141.008 60.7969C141.008 63.7409 141.36 65.8369 142.064 67.0849C142.768 68.3329 143.92 68.9569 145.52 68.9569C147.056 68.9569 148.16 68.4609 148.832 67.4689C149.536 66.4449 149.888 64.7809 149.888 62.4769C149.888 59.5649 149.52 57.4849 148.784 56.2369C148.08 54.9569 146.944 54.3169 145.376 54.3169Z" fill="white"/>
<path d="M162.224 53.5009L164.96 66.0289H165.344L168.704 53.8369L169.472 50.1409H175.664L176.144 53.5009L178.976 65.9809H179.36L182.624 53.8369L183.392 50.1409H188.768L181.808 72.4609H175.808L172.4 58.1089H171.968L167.984 72.4609H161.696L155.888 50.2849L161.696 49.9969L162.224 53.5009Z" fill="white"/>
</svg>
