<svg width="41" height="41" viewBox="0 0 41 41" fill="none" xmlns="http://www.w3.org/2000/svg">
<path d="M28.875 25.5H27.0975L26.4675 24.8925C28.7487 22.2466 30.0025 18.8686 30 15.375C30 12.4825 29.1423 9.65486 27.5352 7.24979C25.9282 4.84472 23.6441 2.9702 20.9717 1.86327C18.2994 0.756337 15.3588 0.466713 12.5218 1.03102C9.68483 1.59533 7.07891 2.98823 5.03356 5.03357C2.98822 7.07891 1.59532 9.68484 1.03101 12.5218C0.466705 15.3588 0.756329 18.2994 1.86326 20.9718C2.97019 23.6441 4.84472 25.9282 7.24978 27.5352C9.65485 29.1423 12.4824 30 15.375 30C18.9975 30 22.3275 28.6725 24.8925 26.4675L25.5 27.0975V28.875L36.75 40.1025L40.1025 36.75L28.875 25.5ZM15.375 25.5C9.7725 25.5 5.25 20.9775 5.25 15.375C5.25 9.77251 9.7725 5.25001 15.375 5.25001C20.9775 5.25001 25.5 9.77251 25.5 15.375C25.5 20.9775 20.9775 25.5 15.375 25.5Z" fill="black"/>
</svg>
